<svg data-v-0dd9719b="" version="1.0" xmlns="http://www.w3.org/2000/svg" xmlns:xlink="http://www.w3.org/1999/xlink" width="100%" height="100%" viewBox="0 0 340.000000 250.000000" preserveAspectRatio="xMidYMid meet" color-interpolation-filters="sRGB" style="margin: auto;"> <rect data-v-0dd9719b="" x="0" y="0" width="100%" height="100%" fill="#fff" fill-opacity="1" class="background"></rect> <rect data-v-0dd9719b="" x="0" y="0" width="100%" height="100%" fill="url(#watermark)" fill-opacity="1" class="watermarklayer"></rect> <g data-v-0dd9719b="" fill="#133359" class="icon-text-wrapper icon-svg-group iconsvg" transform="translate(52.349998474121094,95)"><g class="iconsvg-imagesvg" transform="translate(0,0)"><g><rect fill="#133359" fill-opacity="0" stroke-width="2" x="0" y="0" width="60" height="60" class="image-rect"></rect> <svg x="0" y="0" width="60" height="60" filtersec="colorsb4834989316" class="image-svg-svg primary" style="overflow: visible;"><svg xmlns="http://www.w3.org/2000/svg" viewBox="0 0 194.82000732421875 194.82000732421875"><g><g fill-rule="evenodd"><path fill="#133359" d="M194.82 15.46v179.36H72.15l97.94-97.94-14.51-14.52L43.12 194.82H15.46L194.82 15.46z"></path><path fill="#fe7c30" d="M0 0h122.68L24.73 97.94l14.51 14.51L151.7 0h29.55L0 181.25V0z"></path></g></g></svg></svg> <!----></g></g> <g transform="translate(67,2.1637496948242188)"><g data-gra="path-name" fill-rule="" class="tp-name iconsvg-namesvg" transform="translate(0,0)"><g transform="scale(1)"><g><path d="M10.25-13.24L10.25-13.24 17.76-8.92Q17.35-8.13 15.85-8.43L15.85-8.43Q10.21-1.58 1.16 1.78L1.16 1.78 0.79 1.45Q3.4-1.16 6-5.13 8.59-9.09 10.25-13.24ZM28.18-12.49L28.18-12.49 28.51-12.74Q36.86-10.96 39.68-6.56L39.68-6.56Q41.46-3.82 40.38-1.54L40.38-1.54Q39.51 0.33 37.48 0.29L37.48 0.29Q36.27 0.25 35.03-0.58L35.03-0.58Q33.24-6.14 28.18-12.49ZM17.6-28.6L31.13-28.6 34.66-33.2Q38.64-30.13 41.01-28.1L41.01-28.1Q40.8-27.39 39.72-27.39L39.72-27.39 17.06-27.39Q15.07-22.87 12.33-16.98L12.33-16.98 19.09-16.98 19.09-24.45 26.81-23.78Q26.69-22.95 25.48-22.79L25.48-22.79 25.48-16.98 29.51-16.98 32.91-21.37Q36.73-18.43 38.97-16.44L38.97-16.44Q38.81-15.77 37.73-15.77L37.73-15.77 25.48-15.77 25.48-2.95Q25.48-1.25 25.23-0.19 24.99 0.87 24.2 1.81 23.41 2.74 21.87 3.22 20.34 3.69 17.85 3.9L17.85 3.9Q17.64 0.83 16.85-0.33L16.85-0.33Q15.85-1.78 13.16-2.28L13.16-2.28 13.16-2.82Q17.35-2.53 18.26-2.53L18.26-2.53Q19.09-2.53 19.09-3.2L19.09-3.2 19.09-15.77 11.99-15.77 10.38-13.99 4.61-17.31Q5.02-17.72 5.89-18.3L5.89-18.3Q7.84-21.87 10.25-27.39L10.25-27.39 1.74-27.39 1.41-28.6 10.75-28.6Q12.99-33.87 13.82-36.65L13.82-36.65 21.67-34.41Q21.33-33.33 19.76-33.49L19.76-33.49Q18.39-30.42 17.6-28.6L17.6-28.6ZM81.02-7.84L81.43-7.84 81.56-2.7Q82.63-2.24 83.01-1.7 83.38-1.16 83.38-0.25L83.38-0.25Q83.38 1.54 81.45 2.37 79.52 3.2 74.5 3.2L74.5 3.2 70.56 3.2Q67.11 3.2 66.05 2.24 65 1.29 65-1.58L65-1.58 65-10.96 61.63-10.96Q61.01-4.57 56.78-0.93 52.54 2.7 43.66 4.07L43.66 4.07 43.58 3.61Q49.56 1.29 52.03-2.16 54.49-5.6 54.79-10.96L54.79-10.96 45.41-10.96 45.03-12.16 73.96-12.16 76.87-15.9Q80.23-13.41 82.22-11.66L82.22-11.66Q82.01-10.96 81.06-10.96L81.06-10.96 70.81-10.96 70.81-3.03Q70.81-2.57 71.03-2.41 71.26-2.24 72.05-2.24L72.05-2.24 75.21-2.24Q77.2-2.24 77.74-2.28L77.74-2.28Q78.48-2.32 78.86-2.86 79.23-3.4 81.02-7.84L81.02-7.84ZM75.62-23.82L78.48-26.73 83.51-22Q83.13-21.58 81.85-21.46L81.85-21.46Q78.98-19.09 75.45-17.51L75.45-17.51 75.33-17.6Q75.16-17.06 74.21-17.06L74.21-17.06 52.63-17.06 52.29-18.22 67.86-18.22 70.52-21.5Q73.3-19.42 75.16-17.89L75.16-17.89Q75.83-21.58 75.95-22.66L75.95-22.66 51.51-22.66Q51.76-20.46 51.11-18.86 50.47-17.27 49.22-16.6L49.22-16.6Q48.06-15.85 46.65-16.31 45.24-16.77 44.82-18.14L44.82-18.14Q44.45-19.38 45.07-20.38 45.7-21.37 46.9-21.91L46.9-21.91Q48.06-22.54 48.95-23.97 49.85-25.4 49.72-26.94L49.72-26.94 50.22-26.98Q51.09-25.03 51.34-23.82L51.34-23.82 60.43-23.82 60.43-28.35 67.36-27.81 67.36-30.09 59.64-30.09 59.64-27.19Q59.64-26.98 58.98-26.69 58.31-26.4 57.11-26.19 55.91-25.98 54.62-25.98L54.62-25.98 53.62-25.98 53.62-30.09 44.37-30.09 44.08-31.29 53.62-31.29 53.62-36.4 61.14-35.73Q61.05-34.86 59.64-34.66L59.64-34.66 59.64-31.29 67.36-31.29 67.36-36.4 74.96-35.78Q74.87-34.86 73.46-34.66L73.46-34.66 73.46-31.29 75.66-31.29 78.4-35.03Q81.56-32.5 83.34-30.75L83.34-30.75Q83.22-30.09 82.18-30.09L82.18-30.09 73.46-30.09 73.46-27.39Q73.46-27.14 72.82-26.87 72.18-26.6 70.95-26.42 69.73-26.23 68.36-26.23L68.36-26.23 67.36-26.23 67.36-27.23Q67.11-26.94 66.36-26.81L66.36-26.81 66.36-23.82 75.62-23.82ZM114.05-27.68L114.05-32.33 98.12-32.33 98.12-27.68 114.05-27.68ZM98.12-26.48L98.12-21.67 114.05-21.67 114.05-26.48 98.12-26.48ZM114.05-20.5L98.12-20.5 98.12-19.38Q98.12-18.93 96.39-18.22 94.67-17.51 92.93-17.51L92.93-17.51 92.1-17.51 92.1-35.94 98.49-33.54 113.64-33.54 116.34-36.52 121.9-32.29Q121.36-31.58 120.24-31.38L120.24-31.38 120.24-19.67Q120.2-19.51 119.37-19.17 118.54-18.84 117.29-18.57 116.04-18.3 115.13-18.3L115.13-18.3 114.05-18.3 114.05-20.5ZM126.84-2.41L126.84-2.41 126.88-1.91Q123.27-0.71 122.44 3.94L122.44 3.94Q116.54 2.37 113.22-0.39 109.9-3.15 108.33-8.8L108.33-8.8 108.08-8.8Q107.41-6.47 106.13-4.69 104.84-2.91 102.43-1.27 100.02 0.37 96.08 1.66 92.14 2.95 86.54 3.94L86.54 3.94 86.29 3.4Q93.96 1 97.31-1.91 100.65-4.81 101.48-8.8L101.48-8.8 88.9-8.8 88.57-10 101.68-10Q101.98-11.95 102.06-15.15L102.06-15.15 87.2-15.15 86.87-16.31 118-16.31 120.86-20.3Q124.14-17.64 126.05-15.81L126.05-15.81Q125.88-15.15 124.89-15.15L124.89-15.15 108.95-15.15Q108.82-12.45 108.33-10L108.33-10 116.29-10 119.12-13.9Q122.31-11.25 124.18-9.46L124.18-9.46Q124.01-8.8 122.98-8.8L122.98-8.8 109.11-8.8Q111.31-5.31 115.78-3.96 120.24-2.61 126.84-2.41ZM137.21-12.24L137.21-12.24 137.59-12.45Q143.19-11.66 144.48-8.92L144.48-8.92Q145.26-7.18 143.98-5.81L143.98-5.81Q142.69-4.36 140.78-5.02L140.78-5.02Q140.12-5.27 139.49-5.77L139.49-5.77Q139.33-9.01 137.21-12.24ZM137.29-21.5L137.29-21.5 137.63-21.71Q143.19-21.13 144.43-18.47L144.43-18.47Q145.26-16.77 143.98-15.4L143.98-15.4Q142.69-14.03 140.78-14.69L140.78-14.69Q140.12-14.9 139.54-15.4L139.54-15.4Q139.45-18.72 137.29-21.5ZM151.9-21.46L151.9-21.46 152.24-21.67Q157.84-21.21 159.13-18.55L159.13-18.55Q159.96-16.89 158.71-15.56L158.71-15.56Q157.42-14.15 155.52-14.86L155.52-14.86Q154.93-15.07 154.44-15.44L154.44-15.44Q154.15-18.51 151.9-21.46ZM152.07-12.2L152.07-12.2 152.4-12.41Q157.96-11.62 159.08-8.92L159.08-8.92Q159.79-7.22 158.46-5.94L158.46-5.94Q157.05-4.61 155.1-5.4L155.1-5.4Q154.48-5.64 153.94-6.1L153.94-6.1Q153.94-9.34 152.07-12.2ZM167.88-31.42L167.88-31.42 151.57-31.42 151.57-25.44 159.71-25.44 162.45-28.51 168.05-24.2Q167.43-23.49 166.35-23.28L166.35-23.28 166.35-2.37Q166.35-0.79 166.08 0.19 165.81 1.16 165.04 2.03 164.27 2.91 162.72 3.36 161.16 3.82 158.71 4.03L158.71 4.03Q158.5 1.12 157.59 0.08L157.59 0.08Q156.3-1.37 153.65-1.78L153.65-1.78 153.65-2.28Q158.13-2.03 159.25-2.03L159.25-2.03Q160.12-2.03 160.12-2.91L160.12-2.91 160.12-24.28 151.57-24.28 151.57 2.03Q151.53 2.24 150.97 2.61 150.41 2.99 149.21 3.34 148 3.69 146.55 3.69L146.55 3.69 145.39 3.69 145.39-24.28 136.88-24.28 136.88 1.87Q136.88 2.45 135.24 3.22 133.6 3.98 131.86 3.98L131.86 3.98 130.94 3.98 130.94-27.97 137.38-25.44 145.39-25.44 145.39-31.42 129.04-31.42 128.7-32.58 159.96-32.58 163.19-36.48Q166.85-33.87 169.09-32.08L169.09-32.08Q168.92-31.42 167.88-31.42Z" transform="translate(-0.7899999618530273, 36.650001525878906)"></path></g> <!----> <!----> <!----> <!----> <!----> <!----> <!----></g></g> <g data-gra="path-slogan" fill-rule="" class="tp-slogan iconsvg-slogansvg" fill="#133359" transform="translate(26.915000915527344,47.720001220703125)"><!----> <!----> <g transform="scale(1, 1)"><g transform="scale(1)"><path d="M4.41 0L0.94 0L0.94-8.58L4.45-8.58Q7.92-8.39 8.06-4.41L8.06-4.41Q7.88-0.09 4.41 0L4.41 0ZM4.27-7.64L2.11-7.64L2.11-0.98L4.36-0.98Q6.80-1.13 6.89-4.31L6.89-4.31Q6.84-7.55 4.27-7.64L4.27-7.64ZM16.31-4.27L16.31-4.27Q16.13-7.64 13.31-7.83L13.31-7.83Q10.45-7.69 10.31-4.27L10.31-4.27Q10.45-0.94 13.31-0.80L13.31-0.80Q16.13-0.98 16.31-4.27ZM17.48-4.27L17.48-4.27Q17.20 0 13.31 0.14L13.31 0.14Q9.38 0 9.09-4.27L9.09-4.27Q9.33-8.72 13.31-8.81L13.31-8.81Q17.20-8.67 17.48-4.27ZM20.25-8.58L24.56-1.64L24.56-8.58L25.69-8.58L25.69 0L24.38 0L20.02-6.94L19.97-6.94L19.97 0L18.84 0L18.84-8.58L20.25-8.58ZM33.89-3.61L31.27-3.61L31.27-4.59L35.02-4.59L35.02 0L34.27 0L33.98-1.08Q33 0.09 31.17 0.14L31.17 0.14Q29.44 0.14 28.50-0.75L28.50-0.75Q27.09-2.06 27.14-4.36L27.14-4.36Q27.47-8.63 31.22-8.81L31.22-8.81Q34.41-8.63 34.88-6L34.88-6L33.75-6Q33.28-7.78 31.17-7.83L31.17-7.83Q28.50-7.64 28.36-4.31L28.36-4.31Q28.36-0.75 31.22-0.75L31.22-0.75Q32.25-0.75 33-1.31L33-1.31Q33.94-2.06 33.89-3.61L33.89-3.61ZM43.22-3.61L40.59-3.61L40.59-4.59L44.34-4.59L44.34 0L43.59 0L43.31-1.08Q42.33 0.09 40.50 0.14L40.50 0.14Q38.77 0.14 37.83-0.75L37.83-0.75Q36.42-2.06 36.47-4.36L36.47-4.36Q36.80-8.63 40.55-8.81L40.55-8.81Q43.73-8.63 44.20-6L44.20-6L43.08-6Q42.61-7.78 40.50-7.83L40.50-7.83Q37.83-7.64 37.69-4.31L37.69-4.31Q37.69-0.75 40.55-0.75L40.55-0.75Q41.58-0.75 42.33-1.31L42.33-1.31Q43.27-2.06 43.22-3.61L43.22-3.61ZM51.80-3.19L51.80-8.58L52.97-8.58L52.97-3.05Q52.83 0.05 49.45 0.14L49.45 0.14Q46.31 0.05 46.17-2.86L46.17-2.86L46.17-8.58L47.34-8.58L47.34-3.19Q47.39-0.84 49.50-0.80L49.50-0.80Q51.80-0.84 51.80-3.19L51.80-3.19ZM60.42 0L59.58-2.48L56.11-2.48L55.22 0L54.05 0L57.28-8.58L58.59-8.58L61.69 0L60.42 0ZM57.84-7.31L56.48-3.52L59.16-3.52L57.89-7.31L57.84-7.31ZM64.13-8.58L68.44-1.64L68.44-8.58L69.56-8.58L69.56 0L68.25 0L63.89-6.94L63.84-6.94L63.84 0L62.72 0L62.72-8.58L64.13-8.58ZM75.84-5.06L80.34-5.06L80.34-8.58L81.52-8.58L81.52 0L80.34 0L80.34-3.98L75.84-3.98L75.84 0L74.67 0L74.67-8.58L75.84-8.58L75.84-5.06ZM88.97 0L88.13-2.48L84.66-2.48L83.77 0L82.59 0L85.83-8.58L87.14-8.58L90.23 0L88.97 0ZM86.39-7.31L85.03-3.52L87.70-3.52L86.44-7.31L86.39-7.31ZM98.06-4.27L98.06-4.27Q97.88-7.64 95.06-7.83L95.06-7.83Q92.20-7.69 92.06-4.27L92.06-4.27Q92.20-0.94 95.06-0.80L95.06-0.80Q97.88-0.98 98.06-4.27ZM99.23-4.27L99.23-4.27Q98.95 0 95.06 0.14L95.06 0.14Q91.13 0 90.84-4.27L90.84-4.27Q91.08-8.72 95.06-8.81L95.06-8.81Q98.95-8.67 99.23-4.27ZM107.53-8.58L104.30-3.47L104.30 0L103.13 0L103.13-3.47L99.89-8.58L101.25-8.58L103.69-4.45L106.17-8.58L107.53-8.58ZM114.23-3.19L114.23-8.58L115.41-8.58L115.41-3.05Q115.27 0.05 111.89 0.14L111.89 0.14Q108.75 0.05 108.61-2.86L108.61-2.86L108.61-8.58L109.78-8.58L109.78-3.19Q109.83-0.84 111.94-0.80L111.94-0.80Q114.23-0.84 114.23-3.19L114.23-3.19Z" transform="translate(-0.9375, 8.8125)"></path></g></g></g></g></g><defs v-gra="od"></defs></svg>